IKResults
version=1
nRows=41
nColumns=24
inDegrees=yes

Units are S.I. units (second, meters, Newtons, ...)
If the header above contains a line with 'inDegrees', this indicates whether rotational values are in degrees (yes) or radians (no).

endheader
time	pelvis_tilt	pelvis_list	pelvis_rotation	pelvis_tx	pelvis_ty	pelvis_tz	hip_flexion_r	hip_adduction_r	hip_rotation_r	knee_angle_r	ankle_angle_r	subtalar_angle_r	mtp_angle_r	hip_flexion_l	hip_adduction_l	hip_rotation_l	knee_angle_l	ankle_angle_l	subtalar_angle_l	mtp_angle_l	lumbar_extension	lumbar_bending	lumbar_rotation
4.600000	9.995990	5.370359	-181.500518	0.310174	0.336110	-1.229604	102.306809	-33.376447	-0.945209	-141.275697	46.375448	16.214597	0.000000	116.526220	-38.404100	19.114334	-140.217387	44.376065	22.902752	0.000000	-12.098137	5.777481	7.903671
4.605000	9.988292	5.383189	-181.477716	0.310381	0.335805	-1.229552	102.361889	-33.387929	-0.928371	-141.307415	46.381270	16.173089	0.000000	116.620582	-38.390150	19.141091	-140.244688	44.355619	22.943513	0.000000	-12.117283	5.817705	7.860040
4.610000	9.879928	5.181247	-181.436683	0.310394	0.335707	-1.229106	102.490219	-33.443974	-0.554780	-141.331233	46.349304	16.219713	0.000000	116.662329	-38.276774	19.423478	-140.032291	43.624568	23.670391	0.000000	-12.222003	5.657725	7.795377
4.615000	9.866508	5.184983	-181.416504	0.310607	0.335479	-1.229146	102.529052	-33.438040	-0.531266	-141.351199	46.338870	16.235306	0.000000	116.734776	-38.273181	19.443473	-140.043627	43.593426	23.703843	0.000000	-12.251138	5.676487	7.736508
4.620000	9.849137	5.199003	-181.391198	0.310822	0.335259	-1.229133	102.569856	-33.446675	-0.514455	-141.375504	46.310544	16.259200	0.000000	116.812546	-38.254986	19.476592	-140.050799	43.536547	23.722493	0.000000	-12.276164	5.704257	7.665010
4.625000	9.831444	5.218677	-181.377696	0.311011	0.335078	-1.229076	102.602506	-33.456933	-0.514587	-141.392991	46.285230	16.260337	0.000000	116.881709	-38.246777	19.509739	-140.069696	43.496839	23.718926	0.000000	-12.316554	5.722826	7.746620
4.630000	9.815008	5.253596	-181.383084	0.311218	0.334932	-1.229077	102.621233	-33.450285	-0.649519	-141.395370	46.211457	15.896161	0.000000	116.976245	-38.258098	19.577209	-140.075494	43.432870	23.724110	0.000000	-12.360273	5.752709	7.772513
4.635000	9.800238	5.271254	-181.373281	0.311447	0.334740	-1.229093	102.640961	-33.442030	-0.592835	-141.409251	46.206414	16.073937	0.000000	117.049139	-38.248880	19.617849	-140.081940	43.381241	23.725795	0.000000	-12.397369	5.777560	7.773944
4.640000	9.786592	5.277496	-181.352044	0.311673	0.334569	-1.229071	102.672559	-33.456976	-0.588501	-141.418181	46.201195	16.067097	0.000000	117.096834	-38.226321	19.625166	-140.093774	43.366377	23.764694	0.000000	-12.432515	5.804299	7.736449
4.645000	9.773453	5.286545	-181.333175	0.311904	0.334399	-1.229095	102.713367	-33.458031	-0.567042	-141.429920	46.187473	16.078632	0.000000	117.158815	-38.214199	19.647969	-140.092291	43.315463	23.791005	0.000000	-12.468651	5.814547	7.721052
4.650000	9.769973	5.302084	-181.318930	0.312118	0.334236	-1.229059	102.758759	-33.466845	-0.573626	-141.440749	46.166116	16.056968	0.000000	117.226588	-38.196563	19.665850	-140.100857	43.300856	23.830120	0.000000	-12.490041	5.834721	7.724390
4.655000	9.747980	5.327233	-181.318157	0.312309	0.334117	-1.229020	102.777942	-33.469673	-0.595483	-141.454589	46.112787	16.022691	0.000000	117.289363	-38.194884	19.708801	-140.115981	43.276012	23.844173	0.000000	-12.531760	5.867691	7.739914
4.660000	9.745589	5.327924	-181.311396	0.312533	0.333958	-1.229026	102.830345	-33.464613	-0.597762	-141.459771	46.107256	15.958297	0.000000	117.345703	-38.190604	19.716431	-140.117739	43.252691	23.878403	0.000000	-12.553513	5.872372	7.728083
4.665000	9.721454	5.339512	-181.301927	0.312760	0.333844	-1.229058	102.826020	-33.455496	-0.597987	-141.454412	46.076559	15.983247	0.000000	117.388754	-38.186086	19.733050	-140.117066	43.201097	23.878984	0.000000	-12.602579	5.885117	7.718939
4.670000	9.721553	5.344192	-181.274226	0.312981	0.333684	-1.229064	102.865304	-33.470089	-0.594658	-141.456041	46.056877	15.982624	0.000000	117.446213	-38.163672	19.726266	-140.109184	43.162099	23.898347	0.000000	-12.619962	5.903662	7.669440
4.675000	9.802515	5.278236	-181.274445	0.313296	0.333354	-1.228940	103.105799	-33.457068	-0.544395	-141.454495	45.973060	15.711305	0.000000	117.539688	-38.152385	19.626475	-140.119495	43.103080	23.861715	0.000000	-12.545377	5.848875	7.654307
4.680000	9.792591	5.323812	-181.281144	0.313543	0.333270	-1.228878	103.117928	-33.447458	-0.607780	-141.454300	45.949349	15.632067	0.000000	117.581147	-38.150371	19.647242	-140.131805	43.183779	23.814834	0.000000	-12.590106	5.896573	7.709014
4.685000	9.759470	5.311355	-181.285610	0.313727	0.333192	-1.228748	103.148607	-33.436913	-0.562403	-141.459130	45.912897	15.605302	0.000000	117.625588	-38.135906	19.671947	-140.138079	43.071902	23.847521	0.000000	-12.642607	5.891579	7.733071
4.690000	9.680680	5.362008	-181.267923	0.313896	0.333250	-1.228722	103.046046	-33.453540	-0.634510	-141.451375	45.859876	15.547844	0.000000	117.615614	-38.114299	19.724768	-140.139485	43.042299	23.865097	0.000000	-12.757665	5.945893	7.757576
4.695000	9.720821	5.349548	-181.289169	0.314192	0.333035	-1.228788	103.133727	-33.386637	-0.530473	-141.449031	45.890089	15.771721	0.000000	117.719676	-38.121582	19.739415	-140.132264	42.993795	23.885343	0.000000	-12.739487	5.910743	7.798777
4.700000	9.768452	5.296860	-181.251103	0.314483	0.332770	-1.228685	103.307093	-33.409515	-0.483052	-141.440725	45.870183	15.596712	0.000000	117.756497	-38.071681	19.624143	-140.135679	42.971020	23.876248	0.000000	-12.707273	5.861786	7.751643
4.705000	9.718487	5.337642	-181.224617	0.314629	0.332772	-1.228548	103.261764	-33.438019	-0.502926	-141.432632	45.853617	15.576624	0.000000	117.751349	-38.023343	19.643716	-140.141089	42.966731	23.835753	0.000000	-12.780787	5.914990	7.780303
4.710000	9.793723	5.305968	-181.248414	0.314915	0.332472	-1.228440	103.453586	-33.395200	-0.425547	-141.436613	45.838149	15.531130	0.000000	117.858527	-38.011394	19.597642	-140.159020	42.936206	23.780712	0.000000	-12.714288	5.883376	7.822933
4.715000	9.684022	5.370795	-181.260195	0.315021	0.332606	-1.228414	103.306845	-33.390897	-0.511218	-141.425440	45.780646	15.517259	0.000000	117.831798	-38.013716	19.693736	-140.170621	42.891728	23.738903	0.000000	-12.864142	5.952863	7.874267
4.720000	9.788189	5.326675	-181.266645	0.315381	0.332273	-1.228355	103.511707	-33.351452	-0.369643	-141.421070	45.765275	15.677260	0.000000	117.958375	-37.980586	19.623624	-140.165977	42.837466	23.723817	0.000000	-12.772856	5.915258	7.866254
4.725000	9.772444	5.328690	-181.267882	0.315612	0.332183	-1.228313	103.532240	-33.336218	-0.357516	-141.413621	45.758698	15.682001	0.000000	117.980873	-37.962261	19.621271	-140.167549	42.834516	23.719951	0.000000	-12.820332	5.918087	7.871370
4.730000	9.772709	5.326546	-181.272780	0.315823	0.332057	-1.228196	103.589438	-33.328751	-0.333668	-141.411851	45.715114	15.681979	0.000000	118.021401	-37.947905	19.607688	-140.180940	42.803503	23.686233	0.000000	-12.837112	5.941750	7.793808
4.735000	9.728357	5.381346	-181.262401	0.315928	0.332042	-1.228017	103.540337	-33.351306	-0.371781	-141.409464	45.664041	15.677019	0.000000	118.034008	-37.901884	19.643729	-140.207609	42.803507	23.627199	0.000000	-12.908505	6.007842	7.860012
4.740000	9.716184	5.391558	-181.270398	0.316108	0.331951	-1.227930	103.561233	-33.337238	-0.361216	-141.404357	45.665508	15.675787	0.000000	118.060336	-37.884022	19.658744	-140.211338	42.795152	23.622666	0.000000	-12.946493	6.015878	7.873430
4.745000	9.812159	5.330425	-181.282311	0.316429	0.331581	-1.227905	103.788395	-33.300774	-0.261879	-141.405112	45.610732	15.664651	0.000000	118.163228	-37.863367	19.571619	-140.211460	42.729445	23.575336	0.000000	-12.855090	5.931638	7.894392
4.750000	9.786396	5.329784	-181.282845	0.316620	0.331476	-1.227882	103.799256	-33.288022	-0.243170	-141.404341	45.603335	15.656634	0.000000	118.177868	-37.847688	19.574331	-140.225015	42.717783	23.565959	0.000000	-12.894573	5.942266	7.843432
4.755000	9.660324	5.399132	-181.271710	0.316690	0.331660	-1.227839	103.616023	-33.313838	-0.327285	-141.394465	45.578367	15.647660	0.000000	118.113970	-37.827398	19.650243	-140.230345	42.683141	23.543000	0.000000	-13.056071	6.017811	7.863033
4.760000	9.656188	5.411754	-181.276402	0.316860	0.331567	-1.227679	103.652944	-33.310064	-0.306858	-141.388970	45.587114	15.639918	0.000000	118.140814	-37.796420	19.651595	-140.248434	42.690737	23.538632	0.000000	-13.086766	6.038641	7.913075
4.765000	9.799857	5.312897	-181.276761	0.317187	0.331155	-1.227427	103.992741	-33.302007	-0.136437	-141.390431	45.504023	15.529992	0.000000	118.231665	-37.753619	19.459200	-140.270479	42.686035	23.426230	0.000000	-12.937897	5.956357	7.879542
4.770000	9.889462	5.247832	-181.287702	0.317411	0.330829	-1.227240	104.216893	-33.289942	0.002112	-141.392834	45.477255	15.566477	0.000000	118.295292	-37.729006	19.337503	-140.297514	42.667976	23.331845	0.000000	-12.842113	5.898371	7.860241
4.775000	9.874493	5.249464	-181.293018	0.317552	0.330695	-1.227155	104.237164	-33.287867	0.019498	-141.397217	45.471511	15.568404	0.000000	118.315371	-37.712319	19.346769	-140.309056	42.666058	23.328205	0.000000	-12.869949	5.893953	7.870477
4.780000	9.708962	5.377464	-181.311785	0.317551	0.330956	-1.227188	103.930298	-33.294598	-0.169665	-141.375948	45.488652	15.627467	0.000000	118.267255	-37.711696	19.546477	-140.314974	42.657771	23.341993	0.000000	-13.071817	6.024250	7.937093
4.785000	9.701772	5.388648	-181.311229	0.317675	0.330832	-1.227109	103.961300	-33.306579	-0.151580	-141.379998	45.445807	15.674436	0.000000	118.292773	-37.687895	19.556206	-140.324558	42.636540	23.342673	0.000000	-13.082571	6.031692	7.954678
4.790000	9.687664	5.393504	-181.315079	0.317791	0.330740	-1.227020	103.991466	-33.316458	-0.138972	-141.384590	45.438714	15.678503	0.000000	118.310590	-37.674002	19.562383	-140.333367	42.632012	23.325149	0.000000	-13.104953	6.033611	7.968024
4.795000	9.671843	5.401100	-181.336417	0.317907	0.330707	-1.226959	104.007848	-33.311054	-0.138518	-141.380902	45.387137	15.704796	0.000000	118.318706	-37.676335	19.570785	-140.347981	42.616831	23.282764	0.000000	-13.128444	6.048063	7.984238
4.800000	9.656661	5.404667	-181.344518	0.318020	0.330608	-1.226881	104.022750	-33.321793	-0.132171	-141.382005	45.385739	15.706779	0.000000	118.334508	-37.665788	19.570048	-140.368301	42.617291	23.278909	0.000000	-13.146692	6.055367	7.996155
